<svg id="svg88" xmlns="http://www.w3.org/2000/svg" viewBox="0 0 40.36 74.03"><defs><style>.cls-1{opacity:0.5;isolation:isolate;}</style></defs><g id="g76"><path id="path72" d="M20,0a11.5,11.5,0,0,0-7.16,2.64,3,3,0,0,1,.6.94v0l15.6,38.7a11.52,11.52,0,0,0,2.64-7.48V11.7A11.54,11.54,0,0,0,20,0ZM9,8.65a11.37,11.37,0,0,0-.37,3.07v23.1a11.53,11.53,0,0,0,15.4,11ZM37.44,31a2.88,2.88,0,0,0-2.85,2.94A14.46,14.46,0,0,1,30,44.49l2.26,5.6a20.22,20.22,0,0,0,8.15-16.2A2.88,2.88,0,0,0,37.45,31ZM2.84,31h0A2.89,2.89,0,0,0,0,33.88a20.17,20.17,0,0,0,17.31,20v8.74a31.19,31.19,0,0,0-4.71.74,17,17,0,0,0-6.08,2.58,6.58,6.58,0,0,0-3,5.22A2.88,2.88,0,0,0,6.35,74h27.7a2.88,2.88,0,0,0,2.88-2.88,6.58,6.58,0,0,0-3-5.22,17.24,17.24,0,0,0-6.08-2.58,31.26,31.26,0,0,0-4.71-.74V53.87a20.21,20.21,0,0,0,3.83-.94l-2.16-5.35a14.44,14.44,0,0,1-19-13.7A2.89,2.89,0,0,0,2.82,31Z"/><path id="path74" class="cls-1" d="M10.74,3.22a1.48,1.48,0,0,1,1.35.95l19,47.1a1.5,1.5,0,0,1-2.79,1.12L9.3,5.29a1.51,1.51,0,0,1,.8-2,1.53,1.53,0,0,1,.63-.11Z"/></g></svg>