<svg id="svg8" xmlns="http://www.w3.org/2000/svg" viewBox="0 0 204.81 84.36"><g id="layer1-50"><path id="rect21580-2" d="M5.5,0A5.5,5.5,0,0,0,0,5.5V78.85a5.5,5.5,0,0,0,5.5,5.51H199.31a5.5,5.5,0,0,0,5.5-5.51V5.5a5.5,5.5,0,0,0-5.5-5.5Zm4.63,5h3.92a2.18,2.18,0,0,1,2.18,2.17v3.92a2.18,2.18,0,0,1-2.18,2.18H10.13A2.18,2.18,0,0,1,8,11.06V7.14A2.17,2.17,0,0,1,10.13,5Zm16.71.45h3.92a2.18,2.18,0,0,1,2.18,2.17v3.92a2.18,2.18,0,0,1-2.18,2.18H26.84a2.17,2.17,0,0,1-2.17-2.18V7.59A2.18,2.18,0,0,1,26.84,5.42Zm14.42,0h3.92a2.18,2.18,0,0,1,2.18,2.17v3.92a2.18,2.18,0,0,1-2.18,2.18H41.26a2.18,2.18,0,0,1-2.17-2.18V7.59A2.19,2.19,0,0,1,41.26,5.42Zm14.42,0h3.93a2.17,2.17,0,0,1,2.17,2.17v3.92a2.18,2.18,0,0,1-2.17,2.18H55.68a2.18,2.18,0,0,1-2.17-2.18V7.59A2.17,2.17,0,0,1,55.68,5.42Zm14.42,0H74A2.17,2.17,0,0,1,76.2,7.59v3.92A2.18,2.18,0,0,1,74,13.69H70.1a2.18,2.18,0,0,1-2.17-2.18V7.59A2.17,2.17,0,0,1,70.1,5.42Zm17.28,0H91.3a2.17,2.17,0,0,1,2.17,2.17v3.92a2.18,2.18,0,0,1-2.17,2.18H87.38a2.18,2.18,0,0,1-2.18-2.18V7.59A2.16,2.16,0,0,1,87.38,5.42Zm14.42,0h3.92a2.17,2.17,0,0,1,2.17,2.17v3.92a2.18,2.18,0,0,1-2.17,2.18H101.8a2.18,2.18,0,0,1-2.18-2.18V7.59A2.16,2.16,0,0,1,101.8,5.42Zm14.39,0h3.92a2.18,2.18,0,0,1,2.18,2.17v3.92a2.18,2.18,0,0,1-2.18,2.18h-3.92A2.18,2.18,0,0,1,114,11.51V7.59a2.19,2.19,0,0,1,2.17-2.17Zm14.42,0h3.93a2.17,2.17,0,0,1,2.17,2.17v3.92a2.18,2.18,0,0,1-2.17,2.18h-3.93a2.18,2.18,0,0,1-2.17-2.18V7.59A2.19,2.19,0,0,1,130.61,5.42Zm16.4,0h3.92a2.18,2.18,0,0,1,2.18,2.17v3.92a2.18,2.18,0,0,1-2.18,2.18H147a2.17,2.17,0,0,1-2.17-2.18V7.59A2.18,2.18,0,0,1,147,5.42Zm14.42,0h3.92a2.18,2.18,0,0,1,2.18,2.17v3.92a2.18,2.18,0,0,1-2.18,2.18h-3.92a2.18,2.18,0,0,1-2.17-2.18V7.59A2.19,2.19,0,0,1,161.43,5.42Zm14.42,0h3.93A2.17,2.17,0,0,1,182,7.59v3.92a2.18,2.18,0,0,1-2.17,2.18h-3.93a2.18,2.18,0,0,1-2.17-2.18V7.59A2.19,2.19,0,0,1,175.85,5.42Zm14.42,0h3.93a2.17,2.17,0,0,1,2.17,2.17v3.92a2.18,2.18,0,0,1-2.17,2.18h-3.93a2.18,2.18,0,0,1-2.17-2.18V7.59A2.19,2.19,0,0,1,190.27,5.42ZM10.13,20.52h3.92a2.18,2.18,0,0,1,2.18,2.17v3.92a2.18,2.18,0,0,1-2.18,2.18H10.13A2.18,2.18,0,0,1,8,26.61V22.69a2.16,2.16,0,0,1,2.17-2.17Zm12.73,0h3.92A2.18,2.18,0,0,1,29,22.69v3.92a2.18,2.18,0,0,1-2.18,2.18H22.86a2.17,2.17,0,0,1-2.17-2.18V22.69a2.17,2.17,0,0,1,2.17-2.17Zm13.38,0h3.92a2.17,2.17,0,0,1,2.17,2.17v3.92a2.18,2.18,0,0,1-2.17,2.18H36.24a2.18,2.18,0,0,1-2.18-2.18V22.69a2.2,2.2,0,0,1,2.18-2.17Zm13.4,0h3.93a2.17,2.17,0,0,1,2.17,2.17v3.92a2.18,2.18,0,0,1-2.17,2.18H49.64a2.18,2.18,0,0,1-2.17-2.18V22.69a2.16,2.16,0,0,1,2.17-2.17Zm13.38,0h3.92a2.18,2.18,0,0,1,2.18,2.17v3.92a2.18,2.18,0,0,1-2.18,2.18H63a2.17,2.17,0,0,1-2.17-2.18V22.69A2.16,2.16,0,0,1,63,20.52Zm13.38,0h3.92a2.17,2.17,0,0,1,2.17,2.17v3.92a2.18,2.18,0,0,1-2.17,2.18H76.4a2.18,2.18,0,0,1-2.18-2.18V22.69a2.18,2.18,0,0,1,2.18-2.17Zm13.37,0H93.7a2.17,2.17,0,0,1,2.17,2.17v3.92a2.18,2.18,0,0,1-2.17,2.18H89.77a2.18,2.18,0,0,1-2.17-2.18V22.69a2.19,2.19,0,0,1,2.17-2.17Zm13.41,0h3.92a2.18,2.18,0,0,1,2.18,2.17v3.92a2.18,2.18,0,0,1-2.18,2.18h-3.92A2.18,2.18,0,0,1,101,26.61V22.69a2.16,2.16,0,0,1,2.17-2.17Zm13.38,0h3.92a2.17,2.17,0,0,1,2.17,2.17v3.92a2.18,2.18,0,0,1-2.17,2.18h-3.92a2.18,2.18,0,0,1-2.18-2.18V22.69a2.16,2.16,0,0,1,2.18-2.17Zm13.38,0h3.92A2.17,2.17,0,0,1,136,22.69v3.92a2.18,2.18,0,0,1-2.17,2.18h-3.92a2.18,2.18,0,0,1-2.18-2.18V22.69a2.18,2.18,0,0,1,2.18-2.17Zm13.37,0h3.93a2.17,2.17,0,0,1,2.17,2.17v3.92a2.18,2.18,0,0,1-2.17,2.18h-3.93a2.18,2.18,0,0,1-2.17-2.18V22.69a2.19,2.19,0,0,1,2.17-2.17Zm13.38,0h3.92a2.18,2.18,0,0,1,2.18,2.17v3.92a2.18,2.18,0,0,1-2.18,2.18h-3.92a2.17,2.17,0,0,1-2.17-2.18V22.69a2.18,2.18,0,0,1,2.17-2.17Zm13.41,0H174a2.17,2.17,0,0,1,2.17,2.17v3.92A2.18,2.18,0,0,1,174,28.79H170.1a2.18,2.18,0,0,1-2.18-2.18V22.69a2.16,2.16,0,0,1,2.18-2.17Zm14.13,0h10a2.17,2.17,0,0,1,2.17,2.17v3.92a2.18,2.18,0,0,1-2.17,2.18h-10a2.18,2.18,0,0,1-2.17-2.18V22.69a2.16,2.16,0,0,1,2.17-2.17ZM10.13,33.08h6.1a2.17,2.17,0,0,1,2.17,2.17v3.92a2.18,2.18,0,0,1-2.17,2.18h-6.1A2.18,2.18,0,0,1,8,39.17V35.25A2.16,2.16,0,0,1,10.13,33.08Zm15.83,0h3.93a2.17,2.17,0,0,1,2.17,2.17v3.92a2.18,2.18,0,0,1-2.17,2.18H26a2.18,2.18,0,0,1-2.17-2.18V35.25A2.16,2.16,0,0,1,26,33.08Zm13.66,0h3.93a2.17,2.17,0,0,1,2.17,2.17v3.92a2.18,2.18,0,0,1-2.17,2.18H39.62a2.18,2.18,0,0,1-2.17-2.18V35.25A2.16,2.16,0,0,1,39.62,33.08Zm13.66,0h3.93a2.17,2.17,0,0,1,2.17,2.17v3.92a2.18,2.18,0,0,1-2.17,2.18H53.28a2.18,2.18,0,0,1-2.17-2.18V35.25A2.19,2.19,0,0,1,53.28,33.08Zm13.66,0h3.93A2.17,2.17,0,0,1,73,35.25v3.92a2.18,2.18,0,0,1-2.17,2.18H66.94a2.18,2.18,0,0,1-2.17-2.18V35.25A2.19,2.19,0,0,1,66.94,33.08Zm13.69,0h3.92a2.18,2.18,0,0,1,2.18,2.17v3.92a2.18,2.18,0,0,1-2.18,2.18H80.63a2.18,2.18,0,0,1-2.17-2.18V35.25A2.16,2.16,0,0,1,80.63,33.08Zm13.66,0h3.92a2.18,2.18,0,0,1,2.18,2.17v3.92a2.18,2.18,0,0,1-2.18,2.18H94.29a2.18,2.18,0,0,1-2.17-2.18V35.25A2.17,2.17,0,0,1,94.29,33.08Zm13.66,0h3.92a2.18,2.18,0,0,1,2.18,2.17v3.92a2.18,2.18,0,0,1-2.18,2.18H108a2.17,2.17,0,0,1-2.17-2.18V35.25A2.19,2.19,0,0,1,108,33.08Zm13.66,0h3.92a2.18,2.18,0,0,1,2.18,2.17v3.92a2.18,2.18,0,0,1-2.18,2.18h-3.92a2.17,2.17,0,0,1-2.17-2.18V35.25A2.18,2.18,0,0,1,121.61,33.08Zm13.69,0h3.92a2.17,2.17,0,0,1,2.17,2.17v3.92a2.18,2.18,0,0,1-2.17,2.18H135.3a2.18,2.18,0,0,1-2.18-2.18V35.25A2.16,2.16,0,0,1,135.3,33.08Zm13.66,0h3.92a2.17,2.17,0,0,1,2.17,2.17v3.92a2.18,2.18,0,0,1-2.17,2.18H149a2.18,2.18,0,0,1-2.18-2.18V35.25A2.18,2.18,0,0,1,149,33.08Zm13.66,0h3.92a2.17,2.17,0,0,1,2.17,2.17v3.92a2.18,2.18,0,0,1-2.17,2.18h-3.92a2.18,2.18,0,0,1-2.18-2.18V35.25A2.2,2.2,0,0,1,162.62,33.08Zm13.66,0h3.92a2.17,2.17,0,0,1,2.17,2.17v3.92a2.18,2.18,0,0,1-2.17,2.18h-3.92a2.18,2.18,0,0,1-2.18-2.18V35.25A2.2,2.2,0,0,1,176.28,33.08Zm14,0h3.93a2.17,2.17,0,0,1,2.17,2.17v3.92a2.18,2.18,0,0,1-2.17,2.18h-3.93a2.18,2.18,0,0,1-2.17-2.18V35.25A2.19,2.19,0,0,1,190.27,33.08ZM10.13,45.64h10a2.17,2.17,0,0,1,2.18,2.17v3.92a2.17,2.17,0,0,1-2.18,2.17h-10A2.17,2.17,0,0,1,8,51.73V47.81A2.15,2.15,0,0,1,10.13,45.64Zm20,0H34a2.17,2.17,0,0,1,2.17,2.17v3.92A2.17,2.17,0,0,1,34,53.9H30.11a2.17,2.17,0,0,1-2.17-2.17V47.81A2.19,2.19,0,0,1,30.11,45.64Zm13.94,0H48a2.17,2.17,0,0,1,2.17,2.17v3.92A2.17,2.17,0,0,1,48,53.9H44.05a2.17,2.17,0,0,1-2.17-2.17V47.81A2.19,2.19,0,0,1,44.05,45.64Zm14,0h3.92a2.17,2.17,0,0,1,2.17,2.17v3.92a2.17,2.17,0,0,1-2.17,2.17H58a2.17,2.17,0,0,1-2.18-2.17V47.81A2.19,2.19,0,0,1,58,45.64Zm13.94,0h3.92A2.16,2.16,0,0,1,78,47.81v3.92a2.16,2.16,0,0,1-2.17,2.17H71.94a2.16,2.16,0,0,1-2.17-2.17V47.81A2.17,2.17,0,0,1,71.94,45.64Zm13.94,0H89.8A2.17,2.17,0,0,1,92,47.81v3.92A2.17,2.17,0,0,1,89.8,53.9H85.88a2.16,2.16,0,0,1-2.17-2.17V47.81A2.18,2.18,0,0,1,85.88,45.64Zm13.94,0h3.92a2.17,2.17,0,0,1,2.18,2.17v3.92a2.17,2.17,0,0,1-2.18,2.17H99.82a2.17,2.17,0,0,1-2.17-2.17V47.81A2.19,2.19,0,0,1,99.82,45.64Zm13.94,0h3.93a2.17,2.17,0,0,1,2.17,2.17v3.92a2.17,2.17,0,0,1-2.17,2.17h-3.93a2.17,2.17,0,0,1-2.17-2.17V47.81A2.19,2.19,0,0,1,113.76,45.64Zm13.95,0h3.92a2.17,2.17,0,0,1,2.17,2.17v3.92a2.17,2.17,0,0,1-2.17,2.17h-3.92a2.17,2.17,0,0,1-2.18-2.17V47.81A2.19,2.19,0,0,1,127.71,45.64Zm13.94,0h3.92a2.16,2.16,0,0,1,2.17,2.17v3.92a2.17,2.17,0,0,1-2.17,2.17h-3.92a2.17,2.17,0,0,1-2.18-2.17V47.81A2.17,2.17,0,0,1,141.65,45.64Zm13.94,0h3.92a2.17,2.17,0,0,1,2.18,2.17v3.92a2.17,2.17,0,0,1-2.18,2.17h-3.92a2.16,2.16,0,0,1-2.17-2.17V47.81A2.16,2.16,0,0,1,155.59,45.64Zm13.94,0h3.92a2.17,2.17,0,0,1,2.18,2.17v3.92a2.17,2.17,0,0,1-2.18,2.17h-3.92a2.17,2.17,0,0,1-2.17-2.17V47.81A2.17,2.17,0,0,1,169.53,45.64Zm14.7,0h10a2.17,2.17,0,0,1,2.17,2.17v3.92a2.17,2.17,0,0,1-2.17,2.17h-10a2.17,2.17,0,0,1-2.17-2.17V47.81A2.15,2.15,0,0,1,184.23,45.64ZM10.13,58.19H25.74a2.18,2.18,0,0,1,2.17,2.18v3.92a2.17,2.17,0,0,1-2.17,2.17H10.13A2.17,2.17,0,0,1,8,64.29V60.37A2.16,2.16,0,0,1,10.13,58.19Zm25.46,0h3.92a2.17,2.17,0,0,1,2.17,2.18v3.92a2.17,2.17,0,0,1-2.17,2.17H35.59a2.17,2.17,0,0,1-2.17-2.17V60.37A2.18,2.18,0,0,1,35.59,58.19Zm14.22,0h3.93a2.18,2.18,0,0,1,2.17,2.18v3.92a2.17,2.17,0,0,1-2.17,2.17H49.81a2.17,2.17,0,0,1-2.17-2.17V60.37A2.2,2.2,0,0,1,49.81,58.19Zm14.23,0H68a2.18,2.18,0,0,1,2.17,2.18v3.92A2.17,2.17,0,0,1,68,66.46H64a2.18,2.18,0,0,1-2.18-2.17V60.37A2.2,2.2,0,0,1,64,58.19Zm14.22,0h3.92a2.18,2.18,0,0,1,2.18,2.18v3.92a2.17,2.17,0,0,1-2.18,2.17H78.26a2.17,2.17,0,0,1-2.17-2.17V60.37A2.19,2.19,0,0,1,78.26,58.19Zm14.22,0h3.93a2.18,2.18,0,0,1,2.17,2.18v3.92a2.17,2.17,0,0,1-2.17,2.17H92.48a2.17,2.17,0,0,1-2.17-2.17V60.37A2.2,2.2,0,0,1,92.48,58.19Zm14.23,0h3.92a2.17,2.17,0,0,1,2.17,2.18v3.92a2.17,2.17,0,0,1-2.17,2.17h-3.92a2.17,2.17,0,0,1-2.17-2.17V60.37A2.18,2.18,0,0,1,106.71,58.19Zm14.25,0h3.92a2.18,2.18,0,0,1,2.18,2.18v3.92a2.17,2.17,0,0,1-2.18,2.17H121a2.17,2.17,0,0,1-2.17-2.17V60.37A2.16,2.16,0,0,1,121,58.19Zm14.22,0h3.93a2.18,2.18,0,0,1,2.17,2.18v3.92a2.17,2.17,0,0,1-2.17,2.17h-3.93A2.17,2.17,0,0,1,133,64.29V60.37A2.16,2.16,0,0,1,135.18,58.19Zm14.23,0h3.92a2.17,2.17,0,0,1,2.17,2.18v3.92a2.16,2.16,0,0,1-2.17,2.17h-3.92a2.17,2.17,0,0,1-2.17-2.17V60.37A2.15,2.15,0,0,1,149.41,58.19Zm14.22,0h3.93a2.18,2.18,0,0,1,2.17,2.18v3.92a2.17,2.17,0,0,1-2.17,2.17h-3.93a2.17,2.17,0,0,1-2.17-2.17V60.37A2.16,2.16,0,0,1,163.63,58.19Zm15,0h15.61a2.18,2.18,0,0,1,2.17,2.18v3.92a2.17,2.17,0,0,1-2.17,2.17H178.62a2.17,2.17,0,0,1-2.17-2.17V60.37A2.15,2.15,0,0,1,178.62,58.19ZM10.13,70.72h8.24a2.18,2.18,0,0,1,2.18,2.18v3.92A2.17,2.17,0,0,1,18.37,79H10.13A2.17,2.17,0,0,1,8,76.82V72.9A2.18,2.18,0,0,1,10.13,70.72Zm17.1,0h8.25a2.18,2.18,0,0,1,2.17,2.18v3.92A2.17,2.17,0,0,1,35.48,79H27.23a2.17,2.17,0,0,1-2.17-2.17V72.9A2.18,2.18,0,0,1,27.23,70.72Zm17,0h8.24a2.18,2.18,0,0,1,2.17,2.18v3.92A2.17,2.17,0,0,1,52.44,79H44.2A2.18,2.18,0,0,1,42,76.82V72.9A2.2,2.2,0,0,1,44.2,70.72Zm17,0h81.73a2.18,2.18,0,0,1,2.17,2.18v3.92A2.17,2.17,0,0,1,142.89,79H61.16A2.18,2.18,0,0,1,59,76.82V72.9A2.22,2.22,0,0,1,61.16,70.72Zm90.45,0h8.24A2.17,2.17,0,0,1,162,72.9v3.92A2.17,2.17,0,0,1,159.85,79h-8.24a2.17,2.17,0,0,1-2.17-2.17V72.9A2.2,2.2,0,0,1,151.61,70.72Zm17,0h8.24A2.17,2.17,0,0,1,179,72.9v3.92A2.17,2.17,0,0,1,176.84,79H168.6a2.17,2.17,0,0,1-2.17-2.17V72.9A2.18,2.18,0,0,1,168.6,70.72Zm17.36,0h8.24a2.18,2.18,0,0,1,2.17,2.18v3.92A2.17,2.17,0,0,1,194.2,79H186a2.18,2.18,0,0,1-2.18-2.17V72.9A2.2,2.2,0,0,1,186,70.72Z"/></g></svg>